<?xml version="1.0" encoding="UTF-8" standalone="no"?>
<svg
   xmlns:dc="http://purl.org/dc/elements/1.1/"
   xmlns:cc="http://creativecommons.org/ns#"
   xmlns:rdf="http://www.w3.org/1999/02/22-rdf-syntax-ns#"
   xmlns:svg="http://www.w3.org/2000/svg"
   xmlns="http://www.w3.org/2000/svg"
   xmlns:xlink="http://www.w3.org/1999/xlink"
   xml:space="preserve"
   enable-background="new 0 0 245 135"
   viewBox="0 0 245 135"
   height="135px"
   width="245px"
   y="0px"
   x="0px"
   id="Layer_1"
   version="1.1"><metadata
     id="metadata35"><rdf:RDF><cc:Work
         rdf:about=""><dc:format>image/svg+xml</dc:format><dc:type
           rdf:resource="http://purl.org/dc/dcmitype/StillImage" /><dc:title></dc:title></cc:Work></rdf:RDF></metadata><defs
     id="defs33"><linearGradient
       id="linearGradient4263"><stop
         style="stop-color:#a12427;stop-opacity:1;"
         offset="0"
         id="stop4275" /><stop
         id="stop4159"
         offset="0.22169191"
         style="stop-color:#c02f32;stop-opacity:1;" /><stop
         id="stop4267"
         offset="1"
         style="stop-color:#ee3941;stop-opacity:1;" /></linearGradient><linearGradient
       gradientTransform="translate(-246.18371,-2.5363363)"
       gradientUnits="userSpaceOnUse"
       y2="25.788336"
       x2="155.7467"
       y1="34.593269"
       x1="133.75302"
       id="linearGradient4285"
       xlink:href="#linearGradient4263" /></defs><path
     id="path3"
     d="M237.491,109.369c-1.527,1.84-3.485,3.66-5.958,5.283c-6.617,4.345-16.05,7.843-27.309,10.574  c-22.443,5.444-52.745,8.553-81.73,8.553c-28.984,0-59.289-3.108-81.732-8.553c-11.266-2.731-20.695-6.229-27.313-10.574  c-2.459-1.615-4.411-3.427-5.932-5.256c-2.746-3.293-4.422-7.572-4.422-12.216l0.006-59.418c0-4.166,1.364-8.072,3.647-11.217  c1.621-2.155,3.852-4.319,6.7-6.196c6.618-4.349,16.048-7.845,27.313-10.58c22.443-5.44,52.748-8.553,81.732-8.553  c28.985,0,59.287,3.112,81.73,8.553c11.259,2.735,20.691,6.231,27.309,10.58c2.826,1.852,5.078,4.007,6.71,6.18  c2.304,3.152,3.661,7.02,3.661,11.202l-0.035,59.493C241.869,101.839,240.223,106.079,237.491,109.369"
     fill="#FFFFFF" /><path
     id="path5"
     d="M237.03,108.988c-1.493,1.798-3.406,3.576-5.825,5.161c-6.521,4.288-15.901,7.776-27.119,10.497  c-22.38,5.428-52.65,8.536-81.594,8.536c-28.938,0-59.216-3.108-81.592-8.536c-11.226-2.721-20.606-6.209-27.121-10.497  c-2.415-1.581-4.323-3.35-5.804-5.132c-2.663-3.192-4.282-7.338-4.282-11.837V37.759c0-4.028,1.326-7.815,3.538-10.859l-0.483-0.354  l0.479,0.358c1.577-2.104,3.758-4.221,6.552-6.059c6.515-4.287,15.896-7.775,27.121-10.49c22.376-5.427,52.653-8.544,81.592-8.54  c28.943-0.004,59.214,3.113,81.594,8.54c11.218,2.715,20.598,6.203,27.119,10.49c2.763,1.818,4.971,3.926,6.561,6.042l0.478-0.358  l-0.479,0.354c2.23,3.055,3.542,6.798,3.542,10.849l-0.031,59.493C241.274,101.694,239.678,105.796,237.03,108.988l0.917,0.763  c2.82-3.394,4.519-7.773,4.519-12.526l0.034-59.493c0-4.313-1.397-8.306-3.779-11.557v-0.002l-0.002-0.002  c-1.681-2.233-3.982-4.431-6.86-6.324c-6.71-4.405-16.196-7.914-27.493-10.658c-22.511-5.456-52.842-8.564-81.873-8.567  C93.463,0.624,63.127,3.732,40.619,9.188c-11.305,2.744-20.79,6.253-27.499,10.658c-2.905,1.917-5.187,4.125-6.848,6.343  L6.27,26.192l-0.002,0.002c-2.358,3.244-3.764,7.271-3.764,11.564L2.499,97.181c0,4.788,1.723,9.2,4.559,12.598  c1.555,1.872,3.555,3.722,6.064,5.371c6.707,4.402,16.192,7.913,27.497,10.657c22.508,5.457,52.844,8.567,81.873,8.572  c29.031-0.005,59.362-3.115,81.873-8.572c11.297-2.744,20.783-6.255,27.493-10.657c2.524-1.653,4.522-3.514,6.089-5.398"
     fill="#22376F" /><path
     id="path7"
     d="M235.964,37.731l-0.035,59.493c0,3.178-1.132,6.087-3.013,8.355c-1.147,1.383-2.664,2.81-4.652,4.11  c-5.775,3.793-14.451,7.101-25.435,9.761c-21.877,5.309-51.693,8.388-80.335,8.388c-28.637,0-58.455-3.079-80.335-8.388  c-10.985-2.66-19.655-5.968-25.44-9.761c-1.969-1.295-3.483-2.711-4.63-4.094c-1.901-2.271-3.05-5.18-3.05-8.37L9.05,37.763  c0-2.876,0.917-5.534,2.482-7.689c1.198-1.586,2.891-3.253,5.187-4.766c5.785-3.8,14.455-7.101,25.44-9.764  c21.88-5.304,51.698-8.387,80.335-8.387c28.642,0,58.458,3.083,80.335,8.387c10.983,2.663,19.659,5.964,25.435,9.764  c2.296,1.511,4.012,3.17,5.203,4.762C235.055,32.229,235.964,34.845,235.964,37.731"
     fill="#22376F" /><path
     id="path9"
     d="M223.044,46.842c0.523,0,0.911,0.048,1.162,0.157c0.44,0.182,0.653,0.545,0.653,1.072  c0,0.381-0.136,0.664-0.414,0.84c-0.149,0.097-0.353,0.164-0.622,0.208c0.337,0.054,0.588,0.194,0.739,0.419  c0.152,0.222,0.226,0.441,0.226,0.655v0.316l0.013,0.314l0.044,0.222l0.023,0.055h-0.708l-0.004-0.044l-0.013-0.049l-0.019-0.136  v-0.34c0-0.492-0.133-0.816-0.4-0.972c-0.157-0.094-0.432-0.138-0.836-0.138H222.3v1.678h-0.754v-4.259 M223.848,47.515  c-0.182-0.105-0.492-0.157-0.911-0.157H222.3v1.537h0.679c0.32,0,0.56-0.031,0.712-0.092c0.294-0.117,0.435-0.344,0.435-0.664  C224.125,47.822,224.034,47.619,223.848,47.515z M225.865,51.733c-0.756,0.756-1.678,1.146-2.757,1.146  c-1.068,0-1.99-0.39-2.733-1.146c-0.761-0.761-1.136-1.676-1.136-2.755c0-1.063,0.388-1.976,1.14-2.733  c0.754-0.752,1.67-1.129,2.729-1.129c1.079,0,2.001,0.377,2.757,1.129c0.756,0.756,1.133,1.669,1.138,2.733  C227.003,50.058,226.621,50.971,225.865,51.733z M220.752,46.62c-0.647,0.653-0.97,1.44-0.97,2.358c0,0.935,0.32,1.724,0.966,2.377  c0.651,0.66,1.438,0.985,2.36,0.985c0.938,0,1.72-0.325,2.371-0.985c0.647-0.653,0.97-1.442,0.97-2.377  c0-0.918-0.322-1.705-0.97-2.358c-0.657-0.652-1.44-0.982-2.371-0.982C222.191,45.638,221.412,45.968,220.752,46.62z"
     fill="#FFFFFF" /><path
     id="path11"
     d="M221.303,74.092c-0.019,9.041-0.775,16.49-1.571,18.821c-0.205,0.612-0.479,1.207-0.811,1.787  c-3.303,2.438-8.793,3.251-14.357,3.31c-5.567-0.059-11.058-0.871-14.361-3.31c-0.333-0.58-0.605-1.175-0.813-1.787  c-0.79-2.331-1.544-9.78-1.563-18.821c0.019-9.038,0.772-16.483,1.563-18.821c0.207-0.611,0.479-1.204,0.813-1.784  c3.304-2.438,8.794-3.251,14.361-3.308c5.564,0.057,11.055,0.869,14.357,3.308c0.331,0.58,0.605,1.173,0.811,1.784  C220.527,57.608,221.284,65.054,221.303,74.092 M202.134,57.965v32.259c0,1.229,1.087,2.225,2.43,2.225  c1.339,0,2.426-0.995,2.426-2.225V57.965c0-1.231-1.087-2.227-2.426-2.227C203.221,55.738,202.134,56.733,202.134,57.965z"
     fill="#FFFFFF" /><path
     id="path13"
     d="M73.995,30.455v23.427c3.077-1.753,6.927-2.417,8.557-2.417c2.497,0,4.615,0.739,6.357,2.214  c1.769,1.479,2.843,3.19,3.222,5.13c0.396,1.913,0.598,5.435,0.6,10.545v32.624c-4.65,0.691-8.589,0.691-13.465,0V68.574  c0-3.171-0.007-4.472-0.007-5.35c0-1.791-1.575-2.656-2.61-2.656c-0.988,0-2.706,0.693-2.706,2.493c0,1.098,0.053,2.218,0.053,4.983  l0.042,25.018c-5.618,0.657-9.538,0.657-14.288,0l-0.034-62.607C64.669,29.764,69.431,29.764,73.995,30.455"
     fill="#FFFFFF" /><path
     id="path15"
     d="M56.102,78.751c-0.201,6.89-0.397,12.283-1.054,14.202c-0.207,0.616-0.479,1.207-0.811,1.791  c-3.306,2.432-8.794,3.249-14.361,3.31c-5.562-0.061-11.059-0.878-14.363-3.31c-0.327-0.584-0.596-1.175-0.807-1.791  c-0.794-2.329-1.548-9.774-1.563-18.819c0.015-9.041,0.769-16.487,1.563-18.818c0.211-0.614,0.479-1.211,0.807-1.789  c3.305-2.435,8.802-3.249,14.363-3.31c5.567,0.061,11.056,0.875,14.361,3.31c0.331,0.578,0.604,1.175,0.811,1.789  c0.662,1.95,0.869,7.183,1.064,14.229H42.308V58c0-1.223-1.087-2.22-2.432-2.22c-1.343,0-2.43,0.997-2.43,2.22v32.26  c0,1.235,1.087,2.229,2.43,2.229c1.345,0,2.432-0.993,2.432-2.229V78.751"
     fill="#FFFFFF" /><path
     id="path17"
     d="M148.134,83.158c-0.218,6.89-0.41,12.273-1.068,14.202c-0.205,0.609-0.476,1.205-0.809,1.785  c-3.308,2.438-8.787,3.253-14.359,3.308c-5.565-0.055-11.052-0.87-14.361-3.308c-0.325-0.58-0.604-1.176-0.809-1.785  c-0.79-2.336-1.548-9.78-1.564-18.823c0.017-9.039,0.774-16.485,1.564-18.819c0.205-0.611,0.483-1.206,0.809-1.784  c3.31-2.442,8.796-3.256,14.361-3.31c5.572,0.054,11.052,0.867,14.359,3.31c0.333,0.578,0.604,1.173,0.809,1.784  c0.666,1.953,0.874,7.186,1.074,14.234h-13.808V62.41c0-1.234-1.096-2.223-2.435-2.223c-1.343,0-2.428,0.988-2.428,2.223v32.257  c0,1.231,1.085,2.227,2.428,2.227c1.339,0,2.435-0.995,2.435-2.227V83.158"
     fill="#FFFFFF" /><path
     id="path19"
     d="M184.333,74.124c-0.214,6.894-0.406,12.283-1.063,14.202c-0.209,0.615-0.476,1.208-0.806,1.786  c-3.311,2.438-8.801,3.251-14.366,3.313c-5.562-0.062-11.054-0.874-14.357-3.313c-0.333-0.578-0.605-1.171-0.811-1.786  c-0.796-2.332-1.546-9.776-1.564-18.819c0.019-9.043,0.769-16.485,1.564-18.819c0.205-0.613,0.478-1.206,0.811-1.786  c3.304-2.438,8.796-3.252,14.357-3.308c5.565,0.056,11.056,0.869,14.366,3.308c0.33,0.58,0.597,1.173,0.806,1.786  c0.662,1.954,0.865,7.181,1.068,14.231h-13.811V53.38c0-1.232-1.087-2.228-2.43-2.228c-1.341,0-2.432,0.995-2.432,2.228v32.256  c0,1.23,1.091,2.228,2.432,2.228c1.343,0,2.43-0.997,2.43-2.228V74.124"
     fill="#FFFFFF" /><path
     id="path21"
     d="M111.371,46.375v46.516c-4.731,0.796-9.074,0.739-14.405,0V46.375  C101.605,45.449,106.214,45.449,111.371,46.375"
     fill="#FFFFFF" /><g
     id="g23"><clipPath
       id="SVGID_2_"><path
         d="M90.971,23.242c0-7.239,5.873-13.117,13.138-13.117c7.242,0,13.139,5.878,13.139,13.117    c0,7.263-5.896,13.145-13.139,13.145C96.844,36.387,90.971,30.505,90.971,23.242"
         id="SVGID_1_" /></clipPath><circle
       transform="scale(-1,1)"
       cx="-103.572"
       cy="23.251999"
       r="13.134995"
       id="path4163"
       style="opacity:1;fill:url(#linearGradient4285);fill-opacity:1;fill-rule:nonzero;stroke:#000000;stroke-width:0;stroke-linecap:square;stroke-linejoin:miter;stroke-miterlimit:4;stroke-dasharray:none;stroke-dashoffset:0;stroke-opacity:1" /></g></svg>