<?xml version="1.0" encoding="UTF-8" standalone="no"?>
<!-- Created with Inkscape (http://www.inkscape.org/) -->

<svg
   xmlns:dc="http://purl.org/dc/elements/1.1/"
   xmlns:cc="http://creativecommons.org/ns#"
   xmlns:rdf="http://www.w3.org/1999/02/22-rdf-syntax-ns#"
   xmlns:svg="http://www.w3.org/2000/svg"
   xmlns="http://www.w3.org/2000/svg"
   xmlns:sodipodi="http://sodipodi.sourceforge.net/DTD/sodipodi-0.dtd"
   xmlns:inkscape="http://www.inkscape.org/namespaces/inkscape"
   width="158.66884mm"
   height="43.815788mm"
   viewBox="0 0 562.21242 155.25279"
   id="svg3449"
   version="1.1"
   inkscape:version="0.91 r13725"
   sodipodi:docname="logo.svg">
  <defs
     id="defs3451">
    <clipPath
       clipPathUnits="userSpaceOnUse"
       id="clipPath16">
      <path
         d="m 0,124.697 283.091,0 L 283.091,0 0,0 0,124.697 Z"
         id="path18"
         inkscape:connector-curvature="0" />
    </clipPath>
  </defs>
  <sodipodi:namedview
     id="base"
     pagecolor="#ffffff"
     bordercolor="#666666"
     borderopacity="1.0"
     inkscape:pageopacity="0.0"
     inkscape:pageshadow="2"
     inkscape:zoom="1.4"
     inkscape:cx="288.52612"
     inkscape:cy="128.31751"
     inkscape:document-units="px"
     inkscape:current-layer="layer1"
     showgrid="false"
     inkscape:window-width="1920"
     inkscape:window-height="1015"
     inkscape:window-x="0"
     inkscape:window-y="0"
     inkscape:window-maximized="1"
     fit-margin-top="0"
     fit-margin-left="0"
     fit-margin-right="0"
     fit-margin-bottom="0" />
  <metadata
     id="metadata3454">
    <rdf:RDF>
      <cc:Work
         rdf:about="">
        <dc:format>image/svg+xml</dc:format>
        <dc:type
           rdf:resource="http://purl.org/dc/dcmitype/StillImage" />
        <dc:title></dc:title>
      </cc:Work>
    </rdf:RDF>
  </metadata>
  <g
     inkscape:label="Layer 1"
     inkscape:groupmode="layer"
     id="layer1"
     transform="translate(-59.965221,-329.72955)">
    <g
       id="g14"
       clip-path="url(#clipPath16)"
       transform="matrix(2.8538643,0,0,-2.8538643,-72.875028,591.46686)">
      <g
         id="g20"
         transform="translate(206.2793,42.4424)">
        <path
           d="m 0,0 c -8.364,-0.049 -54.016,-0.297 -64.793,-0.297 -10.779,0 -56.428,0.248 -64.798,0.297 -0.318,0 -0.566,-0.198 0,-0.297 15.218,-2.777 37.717,-4.833 64.798,-4.833 27.078,0 49.573,2.056 64.793,4.833 C 0.569,-0.198 0.318,0 0,0"
           style="fill:#2154ac;fill-opacity:1;fill-rule:nonzero;stroke:none"
           id="path22"
           inkscape:connector-curvature="0" />
      </g>
      <g
         id="g24"
         transform="translate(196.7797,68.3648)">
        <path
           d="m 0,0 c -0.004,8.725 -4.892,13.862 -13.152,13.898 -8.435,0 -13.226,-6.581 -13.226,-14.452 0,-12.296 9.183,-14.246 13.125,-14.246 4.666,0 9.524,2.005 12.011,6.524 l -0.509,0.456 c -2.345,1.974 -3.512,1.962 -4.754,0.703 -1.31,-1.379 -3.452,-2.958 -6.188,-2.958 -4.055,0 -7.605,3.203 -7.492,8.241 l 20.118,0 C -0.031,-1.194 0,-0.583 0,0 m -20,2.579 c 0,3.032 2.402,6.765 7.111,6.765 4.17,0 6.246,-2.82 6.662,-6.765 l -13.773,0 z"
           style="fill:#2154ac;fill-opacity:1;fill-rule:nonzero;stroke:none"
           id="path26"
           inkscape:connector-curvature="0" />
      </g>
      <g
         id="g28"
         transform="translate(201.7054,89.416)">
        <path
           d="m 0,0 0,-32.202 c 0,-2.43 2.13,-3.031 4.931,-3.031 l 1.297,0 L 6.228,0 0,0 Z"
           style="fill:#2154ac;fill-opacity:1;fill-rule:nonzero;stroke:none"
           id="path30"
           inkscape:connector-curvature="0" />
      </g>
      <g
         id="g32"
         transform="translate(224.0438,82.2629)">
        <path
           d="m 0,0 c -3.342,0 -6.296,-0.682 -9.159,-1.895 l 0,-4.883 c 2.939,1.355 5.589,2.232 9.07,2.232 3.598,0 6.23,-1.772 6.242,-5.034 l 0,-0.748 c -4.373,-0.331 -8.779,-0.86 -11.261,-1.698 -4.34,-1.456 -6.519,-4.41 -6.531,-8.186 0.012,-4.867 3.3,-8.464 9.079,-8.486 2.87,0.004 6.426,1.055 8.766,2.626 0.574,-2.294 2.451,-2.008 5.65,-2.008 l 0.382,0 0,18.52 C 12.238,-2.248 6.61,0 0,0 m 6.153,-22.088 c -2.146,-1.395 -5.092,-2.198 -7.304,-2.198 -2.376,0.005 -4.267,1.96 -4.267,3.751 0,3.422 2.332,5.116 11.571,6.074 l 0,-7.627 z"
           style="fill:#2154ac;fill-opacity:1;fill-rule:nonzero;stroke:none"
           id="path34"
           inkscape:connector-curvature="0" />
      </g>
      <g
         id="g36"
         transform="translate(164.2156,58.4134)">
        <path
           d="m 0,0 c -3.069,0 -3.584,1.2 -3.587,4.812 l 0,13.685 4.918,0 c 1.559,0 2.25,1.279 2.25,3.992 l 0,0.734 -7.168,0 0,6.861 -6.229,0 0,-26.907 c 0,-5.394 2.841,-8.026 8.209,-8.026 2.515,0 4.539,0.401 6.639,1.304 L 2.533,0.316 C 1.634,0.109 0.851,-0.009 0,0"
           style="fill:#2154ac;fill-opacity:1;fill-rule:nonzero;stroke:none"
           id="path38"
           inkscape:connector-curvature="0" />
      </g>
      <g
         id="g40"
         transform="translate(133.18,74.442)">
        <path
           d="M 0,0 C 0,1.63 1.183,3.164 4.674,3.186 6.438,3.177 8.141,2.864 9.72,2.305 11.757,1.59 12.85,1.827 13.855,3.962 14.27,4.838 14.44,5.336 14.564,5.74 12.168,6.791 8.423,7.821 5.255,7.821 -3.883,7.821 -6.226,3.253 -6.226,0.17 c 0,-4.905 3.058,-6.668 6.408,-7.54 2.789,-0.72 4.935,-1.404 8.154,-2.013 1.651,-0.322 2.204,-1.42 2.239,-2.76 0,-1.833 -1.097,-3.828 -4.966,-3.828 -3.263,0.008 -5.169,1.019 -7.447,2.308 -2.163,1.246 -3.19,0.163 -4.31,-1.063 -0.561,-0.61 -0.973,-1.215 -1.31,-1.641 3.454,-2.803 7.496,-4.51 11.907,-4.51 8.506,0 12.344,3.52 12.344,8.468 0,4.284 -2.025,6.94 -6.77,8.084 C 7.727,-3.778 5.792,-3.309 3.144,-2.737 1.344,-2.345 0,-1.739 0,0"
           style="fill:#2154ac;fill-opacity:1;fill-rule:nonzero;stroke:none"
           id="path42"
           inkscape:connector-curvature="0" />
      </g>
      <g
         id="g44"
         transform="translate(88.4635,85.3782)">
        <path
           d="m 0,0 c -1.63,2.701 -5.068,4.375 -8.976,4.375 -5.165,0 -7.672,-2.425 -9.539,-4.052 -1.703,2.502 -5.02,4.052 -8.775,4.052 -3.423,0 -5.858,-0.902 -8.702,-3.311 -0.407,1.944 -2.171,2.974 -4.925,2.974 l -0.999,0 0,-35.234 6.715,0 0,25.067 c 0,2.84 2.727,5.336 5.761,5.336 3.19,0 5.832,-2.417 5.832,-5.477 l 0,-24.926 6.7,0 0,24.883 c 0,3.063 2.607,5.537 5.8,5.537 3.194,0 5.801,-2.474 5.801,-5.537 l 0,-24.883 6.704,0 0,24.041 C 1.397,-3.606 1.026,-1.743 0,0"
           style="fill:#2154ac;fill-opacity:1;fill-rule:nonzero;stroke:none"
           id="path46"
           inkscape:connector-curvature="0" />
      </g>
      <g
         id="g48"
         transform="translate(115.0961,81.6366)">
        <path
           d="m 0,0 0,-17.281 c 0,-3.315 -2.684,-6.01 -6.142,-6.01 -3.466,0 -6.139,2.695 -6.139,6.01 l 0,17.281 -6.22,0 0,-16.921 c 0,-3.501 0.282,-5.301 1.267,-6.975 1.561,-2.587 4.898,-4.215 8.712,-4.215 5.064,0 7.222,2.044 9.218,3.59 0.102,-1.637 0.716,-2.933 4.04,-2.933 l 1.493,0 L 6.229,0 0,0 Z"
           style="fill:#2154ac;fill-opacity:1;fill-rule:nonzero;stroke:none"
           id="path50"
           inkscape:connector-curvature="0" />
      </g>
      <g
         id="g52"
         transform="translate(238.9049,87.4373)">
        <path
           d="m 0,0 c 0.661,0 1.279,0.052 1.279,0.867 0,0.655 -0.605,0.782 -1.16,0.782 l -1.082,0 L -0.963,0 0,0 Z m -0.963,-2.985 -0.816,0 0,5.308 2.026,0 c 1.262,0 1.862,-0.461 1.862,-1.502 0,-0.947 -0.583,-1.366 -1.374,-1.466 l 1.507,-2.34 -0.895,0 -1.396,2.307 -0.914,0 0,-2.307 z M 0,-4.165 c 2.085,0 3.722,1.627 3.722,3.85 0,2.177 -1.637,3.82 -3.722,3.82 -2.103,0 -3.756,-1.643 -3.756,-3.82 0,-2.223 1.653,-3.85 3.756,-3.85 m -4.678,3.85 c 0,2.638 2.152,4.591 4.678,4.591 2.508,0 4.643,-1.953 4.643,-4.591 0,-2.67 -2.135,-4.617 -4.643,-4.617 -2.526,0 -4.678,1.947 -4.678,4.617"
           style="fill:#2154ac;fill-opacity:1;fill-rule:nonzero;stroke:none"
           id="path54"
           inkscape:connector-curvature="0" />
      </g>
    </g>
  </g>
</svg>
