<svg version="1.1" viewBox="0 0 265 264" xmlns="http://www.w3.org/2000/svg">
 <g fill="none" stroke="#ada08c" stroke-width="2">
  <path d="m260.75 4.51a0.26 0.26 0 0 0-0.26-0.26h-255.98a0.26 0.26 0 0 0-0.26 0.26v254.98a0.26 0.26 0 0 0 0.26 0.26h255.98a0.26 0.26 0 0 0 0.26-0.26v-254.98" vector-effect="non-scaling-stroke"/>
  <path d="m167.12 50.7q9.37-0.95 13.28-9.44 0.26-0.57 0.8-0.28l1.74 0.92q0.42 0.22 0.84 0c3.13-1.61 3.42-4.41 1.49-7.3q-3.82-5.72-7.91-11.26-0.3-0.4-0.32-0.89l-0.13-4.11q-0.03-0.99-0.84-0.42-0.67 0.48-1.11 1.2-0.47 0.79-0.6-0.12l-0.67-4.56q-0.18-1.28-1.03-0.3l-3.25 3.71q-0.32 0.37-0.82 0.38-17 0.43-22.77 15.65c-1.09 2.88-0.91 6.65-1.79 10.08a1.07 1.07 0 0 1-1.55 0.67l-1.6-0.89q-0.49-0.28-0.88 0.12c-6.24 6.23-17.12 3.92-23.41-0.65a1.14 1.14 0 0 0-1.73 0.5l-0.7 1.75q-0.24 0.59-0.87 0.55-6.52-0.38-11.81 3.3a1.17 1.16-39.2 0 1-1.49-0.15c-1.78-1.87-3.61-4.64-5.57-5.68-7.99-4.25-14.04 13.03-22.65 5.72a0.53 0.53 0 0 0-0.83 0.61q2.11 4.97 7.61 4.59 0.52-0.04 0.94 0.27c1.36 0.98 4.06 3.34 5.71 3.36 4.35 0.07 6.6-6.94 12.63-5.34q0.5 0.13 0.4 0.64c-1.05 5.24-0.24 18.38-4.72 18.97-4.55 0.59-10.38-0.36-12.95 4.52-3.07 5.81-4.12 11.95-11.8 13.08q-0.59 0.09-0.76 0.67l-0.72 2.53a0.45 0.45 0 0 1-0.83 0.1c-3.12-5.74-8.08-16.34-16.09-13.9a0.48 0.48 0 0 0-0.11 0.87c6.96 4.24 9.97 10.87 13.99 17.77 18.74 32.22 62.01 38.52 94.93 29.2q21.51-6.09 34.9-23.32c6.27-8.06 8.47-17.7 17.71-23.57q0.59-0.37-0.02-0.72c-6.81-3.93-11.69 7.05-14.57 11.15q-0.36 0.51-0.67-0.03-8.77-15.29-24.75-22.2c-8.56-3.71-4.64-10.39-5.06-17.26q-0.03-0.45 0.41-0.49" vector-effect="non-scaling-stroke"/>
  <path d="m238.96 129.27a0.33 0.33 0 0 0 0.37-0.54l-9.33-7.74a0.33 0.33 0 0 0-0.42 0l-9.86 8.11a0.33 0.33 0 0 0 0.37 0.55l9.55-5.08a0.33 0.33 0 0 1 0.3 0l9.02 4.7" vector-effect="non-scaling-stroke"/>
  <path d="m48.06 160.19c-7.27-7.03-29.86-8.36-25.48-22.35 1.97-6.32 7.45-7.93 13.5-7.48 5.44 0.39 9.84 1.56 10.99 7.71q0.3 1.59 0.46-0.02 0.42-4.17 0.18-8.22-0.04-0.54-0.58-0.64c-8.65-1.51-16.37-3.22-23.31 0.38-8.36 4.35-10.45 15.85-3.91 22.23 3.86 3.76 11.74 6.31 17.37 8.69 7.43 3.14 12.15 9.37 7.19 17.34-5.52 8.85-24.69 8.33-26.4-3.85q-0.24-1.73-0.46 0.01-0.57 4.58 0.08 9.18 0.07 0.48 0.53 0.61c9.77 2.78 20.17 5.59 28.76-1.35 6.45-5.22 7.78-15.77 1.08-22.24" vector-effect="non-scaling-stroke"/>
  <path d="m222.25 154.98v-19.98a0.5 0.5 0 0 1 0.5-0.5q8.25-0.02 16.5 0.06 4.38 0.04 5.31 4.77a0.35 0.35 0 0 0 0.69-0.06v-7.02q0-0.5-0.5-0.5h-30.95a0.3 0.3 0 0 0-0.11 0.58q2.88 1.17 2.91 4.49 0.2 21.83 0.08 43.69-0.01 3.26-2.63 5.17-0.78 0.57 0.19 0.57h32.74q0.48 0 0.48-0.48v-8.54q0-2.02-0.72-0.14c-1.49 3.82-2.37 6.35-7.01 6.41q-8.39 0.12-17.01-0.06-0.47-0.01-0.47-0.48v-24.17q0-0.45 0.44-0.47 7.15-0.31 14.3 0.22c2.17 0.16 3.04 1.34 3.51 3.29a0.38 0.38 0 0 0 0.75-0.09v-9.86q0-2.58-0.72-0.1-1.05 3.66-3.75 3.7-7.05 0.08-14.04-0.01-0.49 0-0.49-0.49" vector-effect="non-scaling-stroke"/>
  <path d="m79.67 184.95-1.15 0.84q-1.1 0.8 0.25 0.77l8.44-0.2q1.36-0.03 0.15-0.66l-1.82-0.96q-0.46-0.25-0.65-0.74l-15.56-41.82a0.18 0.18 0 0 0-0.33 0q-7.51 20.06-15.05 40.26-0.69 1.85-2.84 3.29-0.65 0.44 0.13 0.46l5.95 0.2q0.86 0.03 0.25-0.58l-1.3-1.29q-0.36-0.37-0.19-0.86l5.91-16.31q0.18-0.5 0.71-0.49l10.73 0.2q0.52 0.01 0.7 0.49l5.99 16.35q0.24 0.65-0.32 1.05" vector-effect="non-scaling-stroke"/>
  <path d="m98.5 183.26v-38.01q0-0.52 0.41-0.84l1.56-1.22q0.89-0.69-0.24-0.69h-8.23q-1.48 0-0.15 0.65 2.12 1.05 2.13 3.15 0.05 18.16 0.01 36.35 0 0.53-0.2 1.03-0.6 1.49-2.13 1.97-1.89 0.6 0.34 0.6h26.28q0.62 0 0.53-0.61-0.54-3.38-0.02-6.75 0.03-0.2-0.12-0.34l-0.22-0.22q-0.56-0.56-0.6 0.23c-0.17 3.23-1.73 5.07-5.12 5.3q-6.84 0.46-13.66 0-0.57-0.03-0.57-0.6" vector-effect="non-scaling-stroke"/>
  <path d="m185.1 178.44-15.06-35.43q-0.22-0.51-0.77-0.51h-5.51q-1.1 0-0.19 0.62 1.9 1.28 1.91 3.68 0.06 18.32 0 36.64 0 0.56-0.44 0.92l-1.56 1.28a0.43 0.43 0 0 0 0.29 0.76l5.74-0.21q1.15-0.04 0.18-0.65c-1.54-0.96-1.94-1.58-1.95-3.49q-0.01-15.71 0.07-31.38a0.33 0.33 0 0 1 0.64-0.13l15.35 35.85q0.28 0.65 0.56 0l16.16-37.81a0.38 0.38 0 0 1 0.73 0.15v34.4q0 0.4-0.26 0.69l-1.71 1.91q-0.71 0.8 0.36 0.68c1.8-0.2 7.51 0.34 8.14-0.07q0.66-0.42-0.03-0.78c-1.3-0.67-1.99-1.48-1.99-3.04q-0.02-18.13 0-36.27 0-1.56 1.72-3.15 0.65-0.6-0.23-0.6h-5.88q-0.63 0-0.88 0.58l-15.02 35.36a0.2 0.2 0 0 1-0.37 0" vector-effect="non-scaling-stroke"/>
  <path d="m240.12 196.4-7.44-6.27a0.95 0.95 0 0 0-1.22 0l-7.67 6.39q-1.18 0.98 0.24 0.4 3.58-1.46 6.97-3.33 1.04-0.57 2.1-0.02l6.61 3.45a0.38 0.37 78.7 0 0 0.41-0.62" vector-effect="non-scaling-stroke"/>
  <path d="m193.23 195.02a2.26 2.26 0 0 0-2.26-2.26 2.26 2.26 0 0 0-2.26 2.26 2.26 2.26 0 0 0 2.26 2.26 2.26 2.26 0 0 0 2.26-2.26" vector-effect="non-scaling-stroke"/>
  <path d="m201.65 195.02a2.27 2.27 0 0 0-2.27-2.27 2.27 2.27 0 0 0-2.27 2.27 2.27 2.27 0 0 0 2.27 2.27 2.27 2.27 0 0 0 2.27-2.27" vector-effect="non-scaling-stroke"/>
  <path d="m171.1 223.48 1.44-1.09q0.84-0.64-0.22-0.64h-8.82q-1.21 0-0.24 0.74l1.48 1.12q0.51 0.39 0.51 1.03v17.44a2.15 2.14 84.5 0 1-1.73 2.11c-35.08 6.94-37.12-49.13-2.22-42.67q5.19 0.97 7.03 6.27 0.66 1.89 0.66-0.11l0.01-6.72q0-0.54-0.52-0.66c-14.95-3.46-27.67-2.15-35.51 12.45-0.69 1.28-1.75 2.16-2.18 3.93-1.86 7.73-0.37 13.78 4.15 19.98 8.6 11.78 21.17 12.32 34.32 9.34a1.26 1.26 0 0 0 0.99-1.23v-19.58a2.15 2.13 71.6 0 1 0.85-1.71" vector-effect="non-scaling-stroke"/>
  <path d="m39.94 238.23-16.27-38.47q-0.18-0.44-0.66-0.45l-6.53-0.2q-0.98-0.03-0.16 0.51 2.32 1.53 2.34 4.44 0.16 18.96 0.04 37.95-0.01 2.85-2.11 4.16-0.94 0.58 0.16 0.58h6.5q2.69 0 0.18-0.7-1.45-0.41-2.04-2.03-0.21-0.55-0.21-1.14l-0.24-35.16a0.39 0.39 0 0 1 0.75-0.15l16.9 39.36q0.29 0.67 0.58 0l17.81-41.66a0.29 0.29 0 0 1 0.56 0.11q-0.08 18.31-0.02 36.62 0.01 2.89-2.39 4.29-0.8 0.46 0.12 0.46h9.31q0.95 0 0.17-0.55l-1.75-1.21q-0.48-0.34-0.49-0.92-0.47-19.69-0.13-39.39 0.06-3.49 2.23-5.08 0.48-0.35-0.11-0.35h-6.88q-0.65 0-0.9 0.59l-16.24 38.39a0.28 0.28 0 0 1-0.52 0" vector-effect="non-scaling-stroke"/>
  <path d="m80.84 246.25q-2.12-1.16-2.14-3.06-0.23-20.22-0.19-40.44 0.01-1.54 2.16-2.96 0.8-0.52-0.16-0.53l-9.11-0.03q-1-0.01-0.13 0.49 2.15 1.25 2.21 3.03 0.31 9-0.04 40.69-0.02 1.76-2.3 2.82-1.05 0.49 0.11 0.49h9.46a0.27 0.27 0 0 0 0.13-0.5" vector-effect="non-scaling-stroke"/>
  <path d="m92.36 206.41a0.22 0.22 0 0 1 0.41-0.12l25.05 39.92q0.26 0.42 0.75 0.46l3.52 0.28a0.62 0.62 0 0 0 0.67-0.62q-0.04-21.59 0.02-43.02 0.01-2.62 2.55-3.65 1-0.41-0.08-0.41h-7.26q-1.22 0-0.14 0.57 2.39 1.25 2.4 3.18 0.01 18.19 0 36.25a0.37 0.37 0 0 1-0.68 0.2l-25.17-39.62q-0.32-0.5-0.91-0.52l-6.24-0.21q-1.68-0.05-0.13 0.58 2.31 0.95 2.4 2.81 0.59 12.12 0.12 38.58-0.07 3.69-2.24 5.32-0.47 0.36 0.12 0.36h6.74q1.38 0 0.16-0.66-2.22-1.2-2.25-2.83-0.26-18.5 0.19-36.85" vector-effect="non-scaling-stroke"/>
  <path d="m204.99 199.11a0.34 0.34 0 0 0-0.07 0.68c1.91 0.34 2.31 2.11 2.37 3.93q0.45 14.29 0.21 28.6-0.1 5.53-1.65 8.24c-4.31 7.52-18.27 5.89-20.31-2.82-2.07-8.81-0.79-21.28-0.78-30.49q0-3.65 0.73-6.27 0.13-0.46 0.55-0.68 0.45-0.25 0.92-0.46 2.35-1.07-0.22-0.78-4.48 0.5-8.97-0.08a0.36 0.36 0 0 0-0.24 0.66q2.52 1.59 2.5 4.61-0.12 15.04 0.07 30.06 0.06 4.48 2.46 7.95c5.55 8.01 23.89 7.2 26.41-3.04q1.03-4.21 1.03-7.22-0.01-14.5 0.01-29.01 0.01-1.99 2.13-3.12 1.02-0.54-0.13-0.57l-7.02-0.19" vector-effect="non-scaling-stroke"/>
  <path d="m225.5 243.73v-20.72q0-0.56 0.56-0.55l13.04 0.12q0.73 0.01 1.1 0.63l1.33 2.2a0.35 0.35 0 0 0 0.64-0.19l-0.24-8.39q-0.02-0.8-0.4-0.09l-1.38 2.61q-0.29 0.53-0.89 0.54l-13.11 0.16q-0.65 0-0.65-0.65v-17.14q0-0.5 0.5-0.5 6.85-0.03 13.78-0.02c3.01 0 4.26 1.06 5.16 3.79q0.58 1.72 0.74-0.08 0.26-2.85-0.15-5.62-0.1-0.63-0.73-0.62l-26.55 0.06q-0.64 0-0.09 0.32 2.34 1.38 2.43 3.41 0.43 9.26 0.1 35.45c-0.04 3.21 0.37 5.39-2.14 7.8q-0.6 0.58 0.23 0.58l28.16 0.04q0.56 0.01 0.56-0.56v-7.31q0-3.49-0.67-0.21c-0.92 4.46-3.41 5.48-7.84 5.48q-6.53 0-12.99-0.03-0.5 0-0.5-0.51" vector-effect="non-scaling-stroke"/>
  <path d="m177.4 37.74-8.19-1.83q-0.56-0.12-0.99 0.27c-3.04 2.79-2.85 9.28-1.94 12.94q0.15 0.57 0.73 0.48 9.06-1.44 11.34-10.32a1.27 1.26 13.6 0 0-0.95-1.54" vector-effect="non-scaling-stroke"/>
  <path d="m193.56 94.83-3.12-0.8q-0.58-0.15-0.77-0.71c-2.74-8.07-7.69-14.45-16.42-16.3-4.22-0.89-10.02-0.65-14.33-2.62-2.79-1.28-5.58-3.12-8.78-2.85-5.61 0.47-11.27 1.84-16.73 0.92-4.28-0.72-12.03-3.57-16.41-1.23q-0.44 0.23-0.7 0.66c-7.96 12.91-24.22 2.21-33.13 12.77-4.96 5.88-7.74 9.68-13.1 12.85q-0.48 0.28-0.11 0.69c27.86 31.75 98.13 32.86 123.96-2.36q0.57-0.78-0.36-1.02" vector-effect="non-scaling-stroke"/>
  <path d="m62.88 164.24a0.36 0.36 0 0 0 0.34 0.49l9.31 0.03a0.36 0.36 0 0 0 0.34-0.48l-4.61-12.59a0.36 0.36 0 0 0-0.68 0l-4.7 12.55" vector-effect="non-scaling-stroke"/>
 </g>
 <g fill="#dfd8c5">
  <path d="m260.75 259.49a0.26 0.26 0 0 1-0.26 0.26h-255.98a0.26 0.26 0 0 1-0.26-0.26v-254.98a0.26 0.26 0 0 1 0.26-0.26h255.98a0.26 0.26 0 0 1 0.26 0.26v254.98zm-93.63-208.79q9.37-0.95 13.28-9.44 0.26-0.57 0.8-0.28l1.74 0.92q0.42 0.22 0.84 0c3.13-1.61 3.42-4.41 1.49-7.3q-3.82-5.72-7.91-11.26-0.3-0.4-0.32-0.89l-0.13-4.11q-0.03-0.99-0.84-0.42-0.67 0.48-1.11 1.2-0.47 0.79-0.6-0.12l-0.67-4.56q-0.18-1.28-1.03-0.3l-3.25 3.71q-0.32 0.37-0.82 0.38-17 0.43-22.77 15.65c-1.09 2.88-0.91 6.65-1.79 10.08a1.07 1.07 0 0 1-1.55 0.67l-1.6-0.89q-0.49-0.28-0.88 0.12c-6.24 6.23-17.12 3.92-23.41-0.65a1.14 1.14 0 0 0-1.73 0.5l-0.7 1.75q-0.24 0.59-0.87 0.55-6.52-0.38-11.81 3.3a1.17 1.16-39.2 0 1-1.49-0.15c-1.78-1.87-3.61-4.64-5.57-5.68-7.99-4.25-14.04 13.03-22.65 5.72a0.53 0.53 0 0 0-0.83 0.61q2.11 4.97 7.61 4.59 0.52-0.04 0.94 0.27c1.36 0.98 4.06 3.34 5.71 3.36 4.35 0.07 6.6-6.94 12.63-5.34q0.5 0.13 0.4 0.64c-1.05 5.24-0.24 18.38-4.72 18.97-4.55 0.59-10.38-0.36-12.95 4.52-3.07 5.81-4.12 11.95-11.8 13.08q-0.59 0.09-0.76 0.67l-0.72 2.53a0.45 0.45 0 0 1-0.83 0.1c-3.12-5.74-8.08-16.34-16.09-13.9a0.48 0.48 0 0 0-0.11 0.87c6.96 4.24 9.97 10.87 13.99 17.77 18.74 32.22 62.01 38.52 94.93 29.2q21.51-6.09 34.9-23.32c6.27-8.06 8.47-17.7 17.71-23.57q0.59-0.37-0.02-0.72c-6.81-3.93-11.69 7.05-14.57 11.15q-0.36 0.51-0.67-0.03-8.77-15.29-24.75-22.2c-8.56-3.71-4.64-10.39-5.06-17.26q-0.03-0.45 0.41-0.49zm71.84 78.57a0.33 0.33 0 0 0 0.37-0.54l-9.33-7.74a0.33 0.33 0 0 0-0.42 0l-9.86 8.11a0.33 0.33 0 0 0 0.37 0.55l9.55-5.08a0.33 0.33 0 0 1 0.3 0l9.02 4.7zm-190.9 30.92c-7.27-7.03-29.86-8.36-25.48-22.35 1.97-6.32 7.45-7.93 13.5-7.48 5.44 0.39 9.84 1.56 10.99 7.71q0.3 1.59 0.46-0.02 0.42-4.17 0.18-8.22-0.04-0.54-0.58-0.64c-8.65-1.51-16.37-3.22-23.31 0.38-8.36 4.35-10.45 15.85-3.91 22.23 3.86 3.76 11.74 6.31 17.37 8.69 7.43 3.14 12.15 9.37 7.19 17.34-5.52 8.85-24.69 8.33-26.4-3.85q-0.24-1.73-0.46 0.01-0.57 4.58 0.08 9.18 0.07 0.48 0.53 0.61c9.77 2.78 20.17 5.59 28.76-1.35 6.45-5.22 7.78-15.77 1.08-22.24zm174.19-5.21v-19.98a0.5 0.5 0 0 1 0.5-0.5q8.25-0.02 16.5 0.06 4.38 0.04 5.31 4.77a0.35 0.35 0 0 0 0.69-0.06v-7.02q0-0.5-0.5-0.5h-30.95a0.3 0.3 0 0 0-0.11 0.58q2.88 1.17 2.91 4.49 0.2 21.83 0.08 43.69-0.01 3.26-2.63 5.17-0.78 0.57 0.19 0.57h32.74q0.48 0 0.48-0.48v-8.54q0-2.02-0.72-0.14c-1.49 3.82-2.37 6.35-7.01 6.41q-8.39 0.12-17.01-0.06-0.47-0.01-0.47-0.48v-24.17q0-0.45 0.44-0.47 7.15-0.31 14.3 0.22c2.17 0.16 3.04 1.34 3.51 3.29a0.38 0.38 0 0 0 0.75-0.09v-9.86q0-2.58-0.72-0.1-1.05 3.66-3.75 3.7-7.05 0.08-14.04-0.01-0.49 0-0.49-0.49zm-142.58 29.97-1.15 0.84q-1.1 0.8 0.25 0.77l8.44-0.2q1.36-0.03 0.15-0.66l-1.82-0.96q-0.46-0.25-0.65-0.74l-15.56-41.82a0.18 0.18 0 0 0-0.33 0q-7.51 20.06-15.05 40.26-0.69 1.85-2.84 3.29-0.65 0.44 0.13 0.46l5.95 0.2q0.86 0.03 0.25-0.58l-1.3-1.29q-0.36-0.37-0.19-0.86l5.91-16.31q0.18-0.5 0.71-0.49l10.73 0.2q0.52 0.01 0.7 0.49l5.99 16.35q0.24 0.65-0.32 1.05zm54.62-17.96 10.34-0.08a1.01 1.01 0 0 1 0.94 0.64q3.01 7.8 5.8 15.79 0.44 1.28-1.05 2.47a0.34 0.34 0 0 0 0.25 0.61c0.96-0.11 8.55 0.02 8.65-0.23q0.18-0.41-0.25-0.51-2.07-0.5-2.71-2.22-7.57-20.61-15.25-41.07a0.29 0.29 0 0 0-0.55 0q-3.73 10.15-7.59 20.2c-0.18 0.45-0.74 0.91-1.1 1.24q-0.36 0.32-0.53 0.77l-7.26 19.11q-0.2 0.54-0.65 0.89l-1.5 1.17q-0.49 0.38 0.13 0.41l5.6 0.26a0.41 0.4-21.1 0 0 0.31-0.69l-0.92-0.92q-0.38-0.38-0.24-0.9 2.24-8.84 6.93-16.58 0.23-0.36 0.65-0.36zm-35.79 16.27v-38.01q0-0.52 0.41-0.84l1.56-1.22q0.89-0.69-0.24-0.69h-8.23q-1.48 0-0.15 0.65 2.12 1.05 2.13 3.15 0.05 18.16 0.01 36.35 0 0.53-0.2 1.03-0.6 1.49-2.13 1.97-1.89 0.6 0.34 0.6h26.28q0.62 0 0.53-0.61-0.54-3.38-0.02-6.75 0.03-0.2-0.12-0.34l-0.22-0.22q-0.56-0.56-0.6 0.23c-0.17 3.23-1.73 5.07-5.12 5.3q-6.84 0.46-13.66 0-0.57-0.03-0.57-0.6zm86.6-4.82-15.06-35.43q-0.22-0.51-0.77-0.51h-5.51q-1.1 0-0.19 0.62 1.9 1.28 1.91 3.68 0.06 18.32 0 36.64 0 0.56-0.44 0.92l-1.56 1.28a0.43 0.43 0 0 0 0.29 0.76l5.74-0.21q1.15-0.04 0.18-0.65c-1.54-0.96-1.94-1.58-1.95-3.49q-0.01-15.71 0.07-31.38a0.33 0.33 0 0 1 0.64-0.13l15.35 35.85q0.28 0.65 0.56 0l16.16-37.81a0.38 0.38 0 0 1 0.73 0.15v34.4q0 0.4-0.26 0.69l-1.71 1.91q-0.71 0.8 0.36 0.68c1.8-0.2 7.51 0.34 8.14-0.07q0.66-0.42-0.03-0.78c-1.3-0.67-1.99-1.48-1.99-3.04q-0.02-18.13 0-36.27 0-1.56 1.72-3.15 0.65-0.6-0.23-0.6h-5.88q-0.63 0-0.88 0.58l-15.02 35.36a0.2 0.2 0 0 1-0.37 0zm55.02 17.96-7.44-6.27a0.95 0.95 0 0 0-1.22 0l-7.67 6.39q-1.18 0.98 0.24 0.4 3.58-1.46 6.97-3.33 1.04-0.57 2.1-0.02l6.61 3.45a0.38 0.37 78.7 0 0 0.41-0.62zm-46.89-1.38a2.26 2.26 0 0 0-2.26-2.26 2.26 2.26 0 0 0-2.26 2.26 2.26 2.26 0 0 0 2.26 2.26 2.26 2.26 0 0 0 2.26-2.26zm8.42 0a2.27 2.27 0 0 0-2.27-2.27 2.27 2.27 0 0 0-2.27 2.27 2.27 2.27 0 0 0 2.27 2.27 2.27 2.27 0 0 0 2.27-2.27zm-30.55 28.46 1.44-1.09q0.84-0.64-0.22-0.64h-8.82q-1.21 0-0.24 0.74l1.48 1.12q0.51 0.39 0.51 1.03v17.44a2.15 2.14 84.5 0 1-1.73 2.11c-35.08 6.94-37.12-49.13-2.22-42.67q5.19 0.97 7.03 6.27 0.66 1.89 0.66-0.11l0.01-6.72q0-0.54-0.52-0.66c-14.95-3.46-27.67-2.15-35.51 12.45-0.69 1.28-1.75 2.16-2.18 3.93-1.86 7.73-0.37 13.78 4.15 19.98 8.6 11.78 21.17 12.32 34.32 9.34a1.26 1.26 0 0 0 0.99-1.23v-19.58a2.15 2.13 71.6 0 1 0.85-1.71zm-131.16 14.75-16.27-38.47q-0.18-0.44-0.66-0.45l-6.53-0.2q-0.98-0.03-0.16 0.51 2.32 1.53 2.34 4.44 0.16 18.96 0.04 37.95-0.01 2.85-2.11 4.16-0.94 0.58 0.16 0.58h6.5q2.69 0 0.18-0.7-1.45-0.41-2.04-2.03-0.21-0.55-0.21-1.14l-0.24-35.16a0.39 0.39 0 0 1 0.75-0.15l16.9 39.36q0.29 0.67 0.58 0l17.81-41.66a0.29 0.29 0 0 1 0.56 0.11q-0.08 18.31-0.02 36.62 0.01 2.89-2.39 4.29-0.8 0.46 0.12 0.46h9.31q0.95 0 0.17-0.55l-1.75-1.21q-0.48-0.34-0.49-0.92-0.47-19.69-0.13-39.39 0.06-3.49 2.23-5.08 0.48-0.35-0.11-0.35h-6.88q-0.65 0-0.9 0.59l-16.24 38.39a0.28 0.28 0 0 1-0.52 0zm40.9 8.02q-2.12-1.16-2.14-3.06-0.23-20.22-0.19-40.44 0.01-1.54 2.16-2.96 0.8-0.52-0.16-0.53l-9.11-0.03q-1-0.01-0.13 0.49 2.15 1.25 2.21 3.03 0.31 9-0.04 40.69-0.02 1.76-2.3 2.82-1.05 0.49 0.11 0.49h9.46a0.27 0.27 0 0 0 0.13-0.5zm11.52-39.84a0.22 0.22 0 0 1 0.41-0.12l25.05 39.92q0.26 0.42 0.75 0.46l3.52 0.28a0.62 0.62 0 0 0 0.67-0.62q-0.04-21.59 0.02-43.02 0.01-2.62 2.55-3.65 1-0.41-0.08-0.41h-7.26q-1.22 0-0.14 0.57 2.39 1.25 2.4 3.18 0.01 18.19 0 36.25a0.37 0.37 0 0 1-0.68 0.2l-25.17-39.62q-0.32-0.5-0.91-0.52l-6.24-0.21q-1.68-0.05-0.13 0.58 2.31 0.95 2.4 2.81 0.59 12.12 0.12 38.58-0.07 3.69-2.24 5.32-0.47 0.36 0.12 0.36h6.74q1.38 0 0.16-0.66-2.22-1.2-2.25-2.83-0.26-18.5 0.19-36.85zm112.63-7.3a0.34 0.34 0 0 0-0.07 0.68c1.91 0.34 2.31 2.11 2.37 3.93q0.45 14.29 0.21 28.6-0.1 5.53-1.65 8.24c-4.31 7.52-18.27 5.89-20.31-2.82-2.07-8.81-0.79-21.28-0.78-30.49q0-3.65 0.73-6.27 0.13-0.46 0.55-0.68 0.45-0.25 0.92-0.46 2.35-1.07-0.22-0.78-4.48 0.5-8.97-0.08a0.36 0.36 0 0 0-0.24 0.66q2.52 1.59 2.5 4.61-0.12 15.04 0.07 30.06 0.06 4.48 2.46 7.95c5.55 8.01 23.89 7.2 26.41-3.04q1.03-4.21 1.03-7.22-0.01-14.5 0.01-29.01 0.01-1.99 2.13-3.12 1.02-0.54-0.13-0.57l-7.02-0.19zm20.51 44.62v-20.72q0-0.56 0.56-0.55l13.04 0.12q0.73 0.01 1.1 0.63l1.33 2.2a0.35 0.35 0 0 0 0.64-0.19l-0.24-8.39q-0.02-0.8-0.4-0.09l-1.38 2.61q-0.29 0.53-0.89 0.54l-13.11 0.16q-0.65 0-0.65-0.65v-17.14q0-0.5 0.5-0.5 6.85-0.03 13.78-0.02c3.01 0 4.26 1.06 5.16 3.79q0.58 1.72 0.74-0.08 0.26-2.85-0.15-5.62-0.1-0.63-0.73-0.62l-26.55 0.06q-0.64 0-0.09 0.32 2.34 1.38 2.43 3.41 0.43 9.26 0.1 35.45c-0.04 3.21 0.37 5.39-2.14 7.8q-0.6 0.58 0.23 0.58l28.16 0.04q0.56 0.01 0.56-0.56v-7.31q0-3.49-0.67-0.21c-0.92 4.46-3.41 5.48-7.84 5.48q-6.53 0-12.99-0.03-0.5 0-0.5-0.51z"/>
  <path d="m177.4 37.74a1.27 1.26 13.6 0 1 0.95 1.54q-2.28 8.88-11.34 10.32-0.58 0.09-0.73-0.48c-0.91-3.66-1.1-10.15 1.94-12.94q0.43-0.39 0.99-0.27l8.19 1.83z"/>
  <path d="m193.56 94.83q0.93 0.24 0.36 1.02c-25.83 35.22-96.1 34.11-123.96 2.36q-0.37-0.41 0.11-0.69c5.36-3.17 8.14-6.97 13.1-12.85 8.91-10.56 25.17 0.14 33.13-12.77q0.26-0.43 0.7-0.66c4.38-2.34 12.13 0.51 16.41 1.23 5.46 0.92 11.12-0.45 16.73-0.92 3.2-0.27 5.99 1.57 8.78 2.85 4.31 1.97 10.11 1.73 14.33 2.62 8.73 1.85 13.68 8.23 16.42 16.3q0.19 0.56 0.77 0.71l3.12 0.8z"/>
  <path d="m62.88 164.24 4.7-12.55a0.36 0.36 0 0 1 0.68 0l4.61 12.59a0.36 0.36 0 0 1-0.34 0.48l-9.31-0.03a0.36 0.36 0 0 1-0.34-0.49z"/>
  <path d="m134.51 164.26 4.69-12.49a0.35 0.35 0 0 1 0.65 0l4.56 12.54a0.35 0.35 0 0 1-0.33 0.47l-9.25-0.05a0.35 0.35 0 0 1-0.32-0.47z"/>
 </g>
 <rect x="120.7" y="138.27" width="40.695" height="51.215" fill="#dfd8c5" stroke-width="1.016"/>
 <g fill="#7a6852">
  <path d="m0 0h265v264h-265v-264zm260.75 4.51a0.26 0.26 0 0 0-0.26-0.26h-255.98a0.26 0.26 0 0 0-0.26 0.26v254.98a0.26 0.26 0 0 0 0.26 0.26h255.98a0.26 0.26 0 0 0 0.26-0.26v-254.98z"/>
  <path d="m166.71 51.19c0.42 6.87-3.5 13.55 5.06 17.26q15.98 6.91 24.75 22.2 0.31 0.54 0.67 0.03c2.88-4.1 7.76-15.08 14.57-11.15q0.61 0.35 0.02 0.72c-9.24 5.87-11.44 15.51-17.71 23.57q-13.39 17.23-34.9 23.32c-32.92 9.32-76.19 3.02-94.93-29.2-4.02-6.9-7.03-13.53-13.99-17.77a0.48 0.48 0 0 1 0.11-0.87c8.01-2.44 12.97 8.16 16.09 13.9a0.45 0.45 0 0 0 0.83-0.1l0.72-2.53q0.17-0.58 0.76-0.67c7.68-1.13 8.73-7.27 11.8-13.08 2.57-4.88 8.4-3.93 12.95-4.52 4.48-0.59 3.67-13.73 4.72-18.97q0.1-0.51-0.4-0.64c-6.03-1.6-8.28 5.41-12.63 5.34-1.65-0.02-4.35-2.38-5.71-3.36q-0.42-0.31-0.94-0.27-5.5 0.38-7.61-4.59a0.53 0.53 0 0 1 0.83-0.61c8.61 7.31 14.66-9.97 22.65-5.72 1.96 1.04 3.79 3.81 5.57 5.68a1.17 1.16-39.2 0 0 1.49 0.15q5.29-3.68 11.81-3.3 0.63 0.04 0.87-0.55l0.7-1.75a1.14 1.14 0 0 1 1.73-0.5c6.29 4.57 17.17 6.88 23.41 0.65q0.39-0.4 0.88-0.12l1.6 0.89a1.07 1.07 0 0 0 1.55-0.67c0.88-3.43 0.7-7.2 1.79-10.08q5.77-15.22 22.77-15.65 0.5-0.01 0.82-0.38l3.25-3.71q0.85-0.98 1.03 0.3l0.67 4.56q0.13 0.91 0.6 0.12 0.44-0.72 1.11-1.2 0.81-0.57 0.84 0.42l0.13 4.11q0.02 0.49 0.32 0.89 4.09 5.54 7.91 11.26c1.93 2.89 1.64 5.69-1.49 7.3q-0.42 0.22-0.84 0l-1.74-0.92q-0.54-0.29-0.8 0.28-3.91 8.49-13.28 9.44-0.44 0.04-0.41 0.49zm10.69-13.45-8.19-1.83q-0.56-0.12-0.99 0.27c-3.04 2.79-2.85 9.28-1.94 12.94q0.15 0.57 0.73 0.48 9.06-1.44 11.34-10.32a1.27 1.26 13.6 0 0-0.95-1.54zm16.16 57.09-3.12-0.8q-0.58-0.15-0.77-0.71c-2.74-8.07-7.69-14.45-16.42-16.3-4.22-0.89-10.02-0.65-14.33-2.62-2.79-1.28-5.58-3.12-8.78-2.85-5.61 0.47-11.27 1.84-16.73 0.92-4.28-0.72-12.03-3.57-16.41-1.23q-0.44 0.23-0.7 0.66c-7.96 12.91-24.22 2.21-33.13 12.77-4.96 5.88-7.74 9.68-13.1 12.85q-0.48 0.28-0.11 0.69c27.86 31.75 98.13 32.86 123.96-2.36q0.57-0.78-0.36-1.02z"/>
  <path d="m238.96 129.27-9.02-4.7a0.33 0.33 0 0 0-0.3 0l-9.55 5.08a0.33 0.33 0 0 1-0.37-0.55l9.86-8.11a0.33 0.33 0 0 1 0.42 0l9.33 7.74a0.33 0.33 0 0 1-0.37 0.54z"/>
  <path d="m48.06 160.19c6.7 6.47 5.37 17.02-1.08 22.24-8.59 6.94-18.99 4.13-28.76 1.35q-0.46-0.13-0.53-0.61-0.65-4.6-0.08-9.18 0.22-1.74 0.46-0.01c1.71 12.18 20.88 12.7 26.4 3.85 4.96-7.97 0.24-14.2-7.19-17.34-5.63-2.38-13.51-4.93-17.37-8.69-6.54-6.38-4.45-17.88 3.91-22.23 6.94-3.6 14.66-1.89 23.31-0.38q0.54 0.1 0.58 0.64 0.24 4.05-0.18 8.22-0.16 1.61-0.46 0.02c-1.15-6.15-5.55-7.32-10.99-7.71-6.05-0.45-11.53 1.16-13.5 7.48-4.38 13.99 18.21 15.32 25.48 22.35z"/>
  <path d="m222.74 155.47q6.99 0.09 14.04 0.01 2.7-0.04 3.75-3.7 0.72-2.48 0.72 0.1v9.86a0.38 0.38 0 0 1-0.75 0.09c-0.47-1.95-1.34-3.13-3.51-3.29q-7.15-0.53-14.3-0.22-0.44 0.02-0.44 0.47v24.17q0 0.47 0.47 0.48 8.62 0.18 17.01 0.06c4.64-0.06 5.52-2.59 7.01-6.41q0.72-1.88 0.72 0.14v8.54q0 0.48-0.48 0.48h-32.74q-0.97 0-0.19-0.57 2.62-1.91 2.63-5.17 0.12-21.86-0.08-43.69-0.03-3.32-2.91-4.49a0.3 0.3 0 0 1 0.11-0.58h30.95q0.5 0 0.5 0.5v7.02a0.35 0.35 0 0 1-0.69 0.06q-0.93-4.73-5.31-4.77-8.25-0.08-16.5-0.06a0.5 0.5 0 0 0-0.5 0.5v19.98q0 0.49 0.49 0.49z"/>
  <path d="m79.99 183.9-5.99-16.35q-0.18-0.48-0.7-0.49l-10.73-0.2q-0.53-0.01-0.71 0.49l-5.91 16.31q-0.17 0.49 0.19 0.86l1.3 1.29q0.61 0.61-0.25 0.58l-5.95-0.2q-0.78-0.02-0.13-0.46 2.15-1.44 2.84-3.29 7.54-20.2 15.05-40.26a0.18 0.18 0 0 1 0.33 0l15.56 41.82q0.19 0.49 0.65 0.74l1.82 0.96q1.21 0.63-0.15 0.66l-8.44 0.2q-1.35 0.03-0.25-0.77l1.15-0.84q0.56-0.4 0.32-1.05zm-17.11-19.66a0.36 0.36 0 0 0 0.34 0.49l9.31 0.03a0.36 0.36 0 0 0 0.34-0.48l-4.61-12.59a0.36 0.36 0 0 0-0.68 0l-4.7 12.55z"/>
  <path d="m99.07 183.86q6.82 0.46 13.66 0c3.39-0.23 4.95-2.07 5.12-5.3q0.04-0.79 0.6-0.23l0.22 0.22q0.15 0.14 0.12 0.34-0.52 3.37 0.02 6.75 0.09 0.61-0.53 0.61h-26.28q-2.23 0-0.34-0.6 1.53-0.48 2.13-1.97 0.2-0.5 0.2-1.03 0.04-18.19-0.01-36.35-0.01-2.1-2.13-3.15-1.33-0.65 0.15-0.65h8.23q1.13 0 0.24 0.69l-1.56 1.22q-0.41 0.32-0.41 0.84v38.01q0 0.57 0.57 0.6z"/>
  <path d="m185.1 178.44a0.2 0.2 0 0 0 0.37 0l15.02-35.36q0.25-0.58 0.88-0.58h5.88q0.88 0 0.23 0.6-1.72 1.59-1.72 3.15-0.02 18.14 0 36.27c0 1.56 0.69 2.37 1.99 3.04q0.69 0.36 0.03 0.78c-0.63 0.41-6.34-0.13-8.14 0.07q-1.07 0.12-0.36-0.68l1.71-1.91q0.26-0.29 0.26-0.69v-34.4a0.38 0.38 0 0 0-0.73-0.15l-16.16 37.81q-0.28 0.65-0.56 0l-15.35-35.85a0.33 0.33 0 0 0-0.64 0.13q-0.08 15.67-0.07 31.38c0.01 1.91 0.41 2.53 1.95 3.49q0.97 0.61-0.18 0.65l-5.74 0.21a0.43 0.43 0 0 1-0.29-0.76l1.56-1.28q0.44-0.36 0.44-0.92 0.06-18.32 0-36.64-0.01-2.4-1.91-3.68-0.91-0.62 0.19-0.62h5.51q0.55 0 0.77 0.51l15.06 35.43z"/>
  <path d="m240.12 196.4a0.38 0.37 78.7 0 1-0.41 0.62l-6.61-3.45q-1.06-0.55-2.1 0.02-3.39 1.87-6.97 3.33-1.42 0.58-0.24-0.4l7.67-6.39a0.95 0.95 0 0 1 1.22 0l7.44 6.27z"/>
  <path d="m193.23 195.02a2.26 2.26 0 0 1-2.26 2.26 2.26 2.26 0 0 1-2.26-2.26 2.26 2.26 0 0 1 2.26-2.26 2.26 2.26 0 0 1 2.26 2.26z"/>
  <path d="m201.65 195.02a2.27 2.27 0 0 1-2.27 2.27 2.27 2.27 0 0 1-2.27-2.27 2.27 2.27 0 0 1 2.27-2.27 2.27 2.27 0 0 1 2.27 2.27z"/>
  <path d="m171.1 223.48a2.15 2.13 71.6 0 0-0.85 1.71v19.58a1.26 1.26 0 0 1-0.99 1.23c-13.15 2.98-25.72 2.44-34.32-9.34-4.52-6.2-6.01-12.25-4.15-19.98 0.43-1.77 1.49-2.65 2.18-3.93 7.84-14.6 20.56-15.91 35.51-12.45q0.52 0.12 0.52 0.66l-0.01 6.72q0 2-0.66 0.11-1.84-5.3-7.03-6.27c-34.9-6.46-32.86 49.61 2.22 42.67a2.15 2.14 84.5 0 0 1.73-2.11v-17.44q0-0.64-0.51-1.03l-1.48-1.12q-0.97-0.74 0.24-0.74h8.82q1.06 0 0.22 0.64l-1.44 1.09z"/>
  <path d="m39.94 238.23a0.28 0.28 0 0 0 0.52 0l16.24-38.39q0.25-0.59 0.9-0.59h6.88q0.59 0 0.11 0.35-2.17 1.59-2.23 5.08-0.34 19.7 0.13 39.39 0.01 0.58 0.49 0.92l1.75 1.21q0.78 0.55-0.17 0.55h-9.31q-0.92 0-0.12-0.46 2.4-1.4 2.39-4.29-0.06-18.31 0.02-36.62a0.29 0.29 0 0 0-0.56-0.11l-17.81 41.66q-0.29 0.67-0.58 0l-16.9-39.36a0.39 0.39 0 0 0-0.75 0.15l0.24 35.16q0 0.59 0.21 1.14 0.59 1.62 2.04 2.03 2.51 0.7-0.18 0.7h-6.5q-1.1 0-0.16-0.58 2.1-1.31 2.11-4.16 0.12-18.99-0.04-37.95-0.02-2.91-2.34-4.44-0.82-0.54 0.16-0.51l6.53 0.2q0.48 0.01 0.66 0.45l16.27 38.47z"/>
  <path d="m80.84 246.25a0.27 0.27 0 0 1-0.13 0.5h-9.46q-1.16 0-0.11-0.49 2.28-1.06 2.3-2.82 0.35-31.69 0.04-40.69-0.06-1.78-2.21-3.03-0.87-0.5 0.13-0.49l9.11 0.03q0.96 0.01 0.16 0.53-2.15 1.42-2.16 2.96-0.04 20.22 0.19 40.44 0.02 1.9 2.14 3.06z"/>
  <path d="m92.36 206.41q-0.45 18.35-0.19 36.85 0.03 1.63 2.25 2.83 1.22 0.66-0.16 0.66h-6.74q-0.59 0-0.12-0.36 2.17-1.63 2.24-5.32 0.47-26.46-0.12-38.58-0.09-1.86-2.4-2.81-1.55-0.63 0.13-0.58l6.24 0.21q0.59 0.02 0.91 0.52l25.17 39.62a0.37 0.37 0 0 0 0.68-0.2q0.01-18.06 0-36.25-0.01-1.93-2.4-3.18-1.08-0.57 0.14-0.57h7.26q1.08 0 0.08 0.41-2.54 1.03-2.55 3.65-0.06 21.43-0.02 43.02a0.62 0.62 0 0 1-0.67 0.62l-3.52-0.28q-0.49-0.04-0.75-0.46l-25.05-39.92a0.22 0.22 0 0 0-0.41 0.12z"/>
  <path d="m204.99 199.11 7.02 0.19q1.15 0.03 0.13 0.57-2.12 1.13-2.13 3.12-0.02 14.51-0.01 29.01 0 3.01-1.03 7.22c-2.52 10.24-20.86 11.05-26.41 3.04q-2.4-3.47-2.46-7.95-0.19-15.02-0.07-30.06 0.02-3.02-2.5-4.61a0.36 0.36 0 0 1 0.24-0.66q4.49 0.58 8.97 0.08 2.57-0.29 0.22 0.78-0.47 0.21-0.92 0.46-0.42 0.22-0.55 0.68-0.73 2.62-0.73 6.27c-0.01 9.21-1.29 21.68 0.78 30.49 2.04 8.71 16 10.34 20.31 2.82q1.55-2.71 1.65-8.24 0.24-14.31-0.21-28.6c-0.06-1.82-0.46-3.59-2.37-3.93a0.34 0.34 0 0 1 0.07-0.68z"/>
  <path d="m226 244.24q6.46 0.03 12.99 0.03c4.43 0 6.92-1.02 7.84-5.48q0.67-3.28 0.67 0.21v7.31q0 0.57-0.56 0.56l-28.16-0.04q-0.83 0-0.23-0.58c2.51-2.41 2.1-4.59 2.14-7.8q0.33-26.19-0.1-35.45-0.09-2.03-2.43-3.41-0.55-0.32 0.09-0.32l26.55-0.06q0.63-0.01 0.73 0.62 0.41 2.77 0.15 5.62-0.16 1.8-0.74 0.08c-0.9-2.73-2.15-3.79-5.16-3.79q-6.93-0.01-13.78 0.02-0.5 0-0.5 0.5v17.14q0 0.65 0.65 0.65l13.11-0.16q0.6-0.01 0.89-0.54l1.38-2.61q0.38-0.71 0.4 0.09l0.24 8.39a0.35 0.35 0 0 1-0.64 0.19l-1.33-2.2q-0.37-0.62-1.1-0.63l-13.04-0.12q-0.56-0.01-0.56 0.55v20.72q0 0.51 0.5 0.51z"/>
  <path d="m79.99 183.9-5.99-16.35q-0.18-0.48-0.7-0.49l-10.73-0.2q-0.53-0.01-0.71 0.49l-5.91 16.31q-0.17 0.49 0.19 0.86l1.3 1.29q0.61 0.61-0.25 0.58l-5.95-0.2q-0.78-0.02-0.13-0.46 2.15-1.44 2.84-3.29 7.54-20.2 15.05-40.26a0.18 0.18 0 0 1 0.33 0l15.56 41.82q0.19 0.49 0.65 0.74l1.82 0.96q1.21 0.63-0.15 0.66l-8.44 0.2q-1.35 0.03-0.25-0.77l1.15-0.84q0.56-0.4 0.32-1.05zm-17.11-19.66a0.36 0.36 0 0 0 0.34 0.49l9.31 0.03a0.36 0.36 0 0 0 0.34-0.48l-4.61-12.59a0.36 0.36 0 0 0-0.68 0l-4.7 12.55z"/>
  <path d="m151.3 183.63-5.99-16.35q-0.18-0.48-0.7-0.49l-10.73-0.2q-0.53-0.01-0.71 0.49l-5.91 16.31q-0.17 0.49 0.19 0.86l1.3 1.29q0.61 0.61-0.25 0.58l-5.95-0.2q-0.78-0.02-0.13-0.46 2.15-1.44 2.84-3.29 7.54-20.2 15.05-40.26a0.18 0.18 0 0 1 0.33 0l15.56 41.82q0.19 0.49 0.65 0.74l1.82 0.96q1.21 0.63-0.15 0.66l-8.44 0.2q-1.35 0.03-0.25-0.77l1.15-0.84q0.56-0.4 0.32-1.05zm-17.11-19.66a0.36 0.36 0 0 0 0.34 0.49l9.31 0.03a0.36 0.36 0 0 0 0.34-0.48l-4.61-12.59a0.36 0.36 0 0 0-0.68 0z"/>
 </g>
</svg>
